{
  "accessors": [
    {
      "bufferView": 2,
      "componentType": 5126,
      "count": 21186,
      "max": [
        1.1968069076538086,
        0.6226826906204224,
        1.6393167972564697
      ],
      "min": [
        -1.1968069076538086,
        -1.1660979986190796,
        -3.0154244899749756
      ],
      "type": "VEC3"
    },
    {
      "bufferView": 2,
      "byteOffset": 254232,
      "componentType": 5126,
      "count": 21186,
      "max": [
        0.9999741911888123,
        0.9998316168785095,
        0.9997099041938782
      ],
      "min": [
        -0.9999974966049194,
        -0.9999876022338867,
        -0.9998807907104492
      ],
      "type": "VEC3"
    },
    {
      "bufferView": 3,
      "componentType": 5126,
      "count": 21186,
      "max": [
        0.9993022084236145,
        0.9999963045120239,
        0.9997334480285645,
        1.0
      ],
      "min": [
        -0.999597430229187,
        -0.999988853931427,
        -0.9935564398765564,
        1.0
      ],
      "type": "VEC4"
    },
    {
      "bufferView": 1,
      "componentType": 5126,
      "count": 21186,
      "max": [
        0.9930658936500549,
        0.996261715888977
      ],
      "min": [
        0.004261016845703125,
        0.005825638771057129
      ],
      "type": "VEC2"
    },
    {
      "bufferView": 0,
      "componentType": 5125,
      "count": 122184,
      "type": "SCALAR"
    }
  ],
  "asset": {
    "extras": {
      "author": "CARI'MAM (https://sketchfab.com/CARIMAM)",
      "license": "CC-BY-NC-SA-4.0 (http://creativecommons.org/licenses/by-nc-sa/4.0/)",
      "source": "https://sketchfab.com/3d-models/humpback-whale-f85fe853de6b4ff4a0bb3cfed2bc14a4",
      "title": "Humpback whale"
    },
    "generator": "Sketchfab-12.68.0",
    "version": "2.0"
  },
  "bufferViews": [
    {
      "buffer": 0,
      "byteLength": 488736,
      "name": "floatBufferViews",
      "target": 34963
    },
    {
      "buffer": 0,
      "byteLength": 169488,
      "byteOffset": 488736,
      "byteStride": 8,
      "name": "floatBufferViews",
      "target": 34962
    },
    {
      "buffer": 0,
      "byteLength": 508464,
      "byteOffset": 658224,
      "byteStride": 12,
      "name": "floatBufferViews",
      "target": 34962
    },
    {
      "buffer": 0,
      "byteLength": 338976,
      "byteOffset": 1166688,
      "byteStride": 16,
      "name": "floatBufferViews",
      "target": 34962
    }
  ],
  "buffers": [
    {
      "byteLength": 1505664,
      "uri": "scene.bin"
    }
  ],
  "images": [
    {
      "uri": "textures/lambert1_baseColor.png"
    },
    {
      "uri": "textures/lambert1_metallicRoughness.png"
    },
    {
      "uri": "textures/lambert1_normal.png"
    }
  ],
  "materials": [
    {
      "doubleSided": true,
      "name": "lambert1",
      "normalTexture": {
        "index": 2
      },
      "pbrMetallicRoughness": {
        "baseColorTexture": {
          "index": 0
        },
        "metallicRoughnessTexture": {
          "index": 1
        },
        "roughnessFactor": 0.6
      }
    }
  ],
  "meshes": [
    {
      "name": "polySurface1_lambert1_0",
      "primitives": [
        {
          "attributes": {
            "NORMAL": 1,
            "POSITION": 0,
            "TANGENT": 2,
            "TEXCOORD_0": 3
          },
          "indices": 4,
          "material": 0,
          "mode": 4
        }
      ]
    }
  ],
  "nodes": [
    {
      "children": [
        1
      ],
      "matrix": [
        285.71429443359375,
        0.0,
        0.0,
        0.0,
        0.0,
        6.34413176289414e-14,
        -285.71429443359375,
        0.0,
        0.0,
        285.71429443359375,
        6.34413176289414e-14,
        0.0,
        0.0,
        0.0,
        0.0,
        1.0
      ],
      "name": "Sketchfab_model"
    },
    {
      "children": [
        2
      ],
      "matrix": [
        0.009999999776482582,
        0.0,
        0.0,
        0.0,
        0.0,
        0.0,
        0.009999999776482582,
        0.0,
        0.0,
        -0.009999999776482582,
        0.0,
        0.0,
        0.0,
        0.0,
        0.0,
        1.0
      ],
      "name": "Megaptera novaeangliae_LODa.fbx"
    },
    {
      "children": [
        3
      ],
      "name": "RootNode"
    },
    {
      "children": [
        4
      ],
      "name": "polySurface1"
    },
    {
      "mesh": 0,
      "name": "polySurface1_lambert1_0"
    }
  ],
  "samplers": [
    {
      "magFilter": 9729,
      "minFilter": 9987,
      "wrapS": 10497,
      "wrapT": 10497
    }
  ],
  "scene": 0,
  "scenes": [
    {
      "name": "Sketchfab_Scene",
      "nodes": [
        0
      ]
    }
  ],
  "textures": [
    {
      "sampler": 0,
      "source": 0
    },
    {
      "sampler": 0,
      "source": 1
    },
    {
      "sampler": 0,
      "source": 2
    }
  ]
}
